<svg xmlns="http://www.w3.org/2000/svg" viewBox="0 0 457.9 170.1"><defs><style>.cls-1{fill:#fff;}</style></defs><title>logoRecurso 1</title><g id="Capa_2" data-name="Capa 2"><g id="Layer_1" data-name="Layer 1"><path class="cls-1" d="M78.6,145.9c0,9.8,1.4,17,4.3,21.5a34.32,34.32,0,0,1-6.3,1.9,30.05,30.05,0,0,1-6.1.6c-4.5,0-7.9-.9-10.2-2.6a11.48,11.48,0,0,1-4.4-7.5,33.6,33.6,0,0,1-10.8,7.3q-6.75,3-16.5,3a39,39,0,0,1-10.1-1.4,26.54,26.54,0,0,1-9.2-4.6,23.07,23.07,0,0,1-6.7-8.5,29.81,29.81,0,0,1-2.6-13c0-6.3,1.5-11.5,4.6-15.5a32.88,32.88,0,0,1,11.5-9.4,49.6,49.6,0,0,1,15-4.7c5.4-.9,10.3-1.4,14.8-1.7,1.5-.1,3-.2,4.4-.2h4v-3.4c0-4.8-1.3-8.2-3.8-10.2s-6.7-3-12.4-3a37.59,37.59,0,0,0-14.3,2.6,92,92,0,0,0-12.2,6,31,31,0,0,1-4.2-7,16.56,16.56,0,0,1-1.6-5.7c0-1.7,1-3.4,2.9-5A28.84,28.84,0,0,1,16.6,81a64.5,64.5,0,0,1,11.6-3.2A77,77,0,0,1,42,76.6a60.51,60.51,0,0,1,17.1,2.1,26.38,26.38,0,0,1,11.4,6.4,25.34,25.34,0,0,1,6.3,10.8A56,56,0,0,1,78.7,111v34.9ZM54.7,124.2H52.1a22.75,22.75,0,0,0-2.6.2c-3.1.3-6.2.6-9.3,1.1a26.59,26.59,0,0,0-8.1,2.6,16.34,16.34,0,0,0-5.8,4.9,12.54,12.54,0,0,0-2.2,7.7,13.5,13.5,0,0,0,3,8.9c2,2.4,5.4,3.6,10.1,3.6a24.11,24.11,0,0,0,6.7-.9,22,22,0,0,0,5.6-2.4,13.91,13.91,0,0,0,3.8-3.3,5.78,5.78,0,0,0,1.4-3.3Z"/><path class="cls-1" d="M175,93.2a16.86,16.86,0,0,1,1.5-7.6,12.27,12.27,0,0,1,3.9-4.5,14.33,14.33,0,0,1,5.4-2.2,30.53,30.53,0,0,1,6-.6,54.9,54.9,0,0,1,5.8.3c1.9.2,2.8.3,2.8.5v74.8a21.09,21.09,0,0,1-1.2,7.7,11.34,11.34,0,0,1-3.4,4.8,11,11,0,0,1-5.1,2.4,33.63,33.63,0,0,1-6.7.7c-2,0-3.9-.1-5.6-.2a9.28,9.28,0,0,1-3.4-.6Z"/><path class="cls-1" d="M372.9,145.9c0,9.8,1.4,17,4.3,21.5a34.32,34.32,0,0,1-6.3,1.9,30.05,30.05,0,0,1-6.1.6c-4.5,0-7.9-.9-10.2-2.6a11.48,11.48,0,0,1-4.4-7.5,33.6,33.6,0,0,1-10.8,7.3q-6.75,3-16.5,3a39,39,0,0,1-10.1-1.4,26.54,26.54,0,0,1-9.2-4.6,23.07,23.07,0,0,1-6.7-8.5,29.81,29.81,0,0,1-2.6-13c0-6.3,1.5-11.5,4.6-15.5a32.88,32.88,0,0,1,11.5-9.4,49.6,49.6,0,0,1,15-4.7c5.4-.9,10.3-1.4,14.8-1.7,1.5-.1,3-.2,4.4-.2h4v-3.4c0-4.8-1.3-8.2-3.8-10.2s-6.7-3-12.4-3a37.59,37.59,0,0,0-14.3,2.6,92,92,0,0,0-12.2,6,31,31,0,0,1-4.2-7,16.56,16.56,0,0,1-1.6-5.7c0-1.7,1-3.4,2.9-5a28.84,28.84,0,0,1,7.9-4.4,64.5,64.5,0,0,1,11.6-3.2,77,77,0,0,1,13.8-1.2,60.51,60.51,0,0,1,17.1,2.1,26.38,26.38,0,0,1,11.4,6.4,25.34,25.34,0,0,1,6.3,10.8A56,56,0,0,1,373,111v34.9Zm-24-21.7h-2.6a22.75,22.75,0,0,0-2.6.2c-3.1.3-6.2.6-9.3,1.1a26.59,26.59,0,0,0-8.1,2.6,16.34,16.34,0,0,0-5.8,4.9,12.54,12.54,0,0,0-2.2,7.7,13.5,13.5,0,0,0,3,8.9c2,2.4,5.4,3.6,10.1,3.6a24.11,24.11,0,0,0,6.7-.9,22,22,0,0,0,5.6-2.4,13.91,13.91,0,0,0,3.8-3.3,5.78,5.78,0,0,0,1.4-3.3Z"/><path class="cls-1" d="M170.7,80.9a36.09,36.09,0,0,0-5.7-1.7,33.79,33.79,0,0,0-7.2-.8,17.24,17.24,0,0,0-6.8,1.2,12.35,12.35,0,0,0-4.7,3.5,17.86,17.86,0,0,0-3.2,5.6c-.9,2.2-1.7,4.6-2.5,7.3l-14.5,37.6L112.4,96.5c-.8-2.7-1.6-5.2-2.4-7.4a17.32,17.32,0,0,0-3.2-5.7,14.51,14.51,0,0,0-5-3.7,18.25,18.25,0,0,0-7.5-1.4,37,37,0,0,0-13.7,2.5L111.8,158a14.71,14.71,0,0,0,28,.4Z"/><path class="cls-1" d="M295.8,80.9a36.09,36.09,0,0,0-5.7-1.7,33.79,33.79,0,0,0-7.2-.8,17.24,17.24,0,0,0-6.8,1.2,12.35,12.35,0,0,0-4.7,3.5,17.86,17.86,0,0,0-3.2,5.6c-.9,2.2-1.7,4.6-2.5,7.3l-14.6,37.6L237.4,96.5c-.8-2.7-1.6-5.2-2.4-7.4a17.32,17.32,0,0,0-3.2-5.7,14.51,14.51,0,0,0-5-3.7,18.25,18.25,0,0,0-7.5-1.4,37,37,0,0,0-13.7,2.5L236.8,158a14.71,14.71,0,0,0,28,.4Z"/><path class="cls-1" d="M225.1,44a4.39,4.39,0,0,0-1.8-1.2,6.05,6.05,0,0,0-2.4-.4,7.51,7.51,0,0,0-2.6.5,4.83,4.83,0,0,0-2,1.4,7.71,7.71,0,0,0-1.4,2.1,7.51,7.51,0,0,0-.5,2.6,7.08,7.08,0,0,0,.5,2.6,7.43,7.43,0,0,0,1.3,2.1,7.18,7.18,0,0,0,2,1.4,7,7,0,0,0,2.5.5,6,6,0,0,0,2.7-.6,4.94,4.94,0,0,0,1.9-1.6l4.1,2.8a8.19,8.19,0,0,1-3.6,2.7,11.3,11.3,0,0,1-4.5.9,15.1,15.1,0,0,1-4.8-.8,10.27,10.27,0,0,1-3.8-2.2,9.4,9.4,0,0,1-2.5-3.4,10.63,10.63,0,0,1-.9-4.5,11.3,11.3,0,0,1,.9-4.5,9.4,9.4,0,0,1,2.5-3.4,11.85,11.85,0,0,1,3.8-2.2,13,13,0,0,1,6.8-.6,14.62,14.62,0,0,1,2,.5,6.63,6.63,0,0,1,1.9.9,7.31,7.31,0,0,1,1.6,1.4Z"/><path class="cls-1" d="M232.9,38.7h4.9V55h9.1v4.2h-14Z"/><path class="cls-1" d="M253.5,33h6.4l-5.4,4.2h-4.1ZM251,38.7h4.9V59.2H251Z"/><path class="cls-1" d="M260.8,38.7h6.7L277,52.9h.1V38.7H282V59.2h-6.4l-9.7-14.6h-.1V59.2h-4.9V38.7Z"/><path class="cls-1" d="M286.5,38.7h4.9V59.2h-4.9Z"/><path class="cls-1" d="M311.4,44a4.39,4.39,0,0,0-1.8-1.2,8.6,8.6,0,0,0-2.4-.4,7.51,7.51,0,0,0-2.6.5,4.83,4.83,0,0,0-2,1.4,7.71,7.71,0,0,0-1.4,2.1,7.51,7.51,0,0,0-.5,2.6,7.08,7.08,0,0,0,.5,2.6,7.43,7.43,0,0,0,1.3,2.1,6,6,0,0,0,2,1.4,7,7,0,0,0,2.5.5,6,6,0,0,0,2.7-.6,4.94,4.94,0,0,0,1.9-1.6l4.1,2.8a8.19,8.19,0,0,1-3.6,2.7,11.3,11.3,0,0,1-4.5.9,15.1,15.1,0,0,1-4.8-.8,10.27,10.27,0,0,1-3.8-2.2,9.4,9.4,0,0,1-2.5-3.4,10.63,10.63,0,0,1-.9-4.5,11.3,11.3,0,0,1,.9-4.5A9.4,9.4,0,0,1,299,41a11.85,11.85,0,0,1,3.8-2.2,13,13,0,0,1,6.8-.6,11.7,11.7,0,0,1,2,.5,6.63,6.63,0,0,1,1.9.9,7.31,7.31,0,0,1,1.6,1.4Z"/><path class="cls-1" d="M326.4,38.7h4.1l9.7,20.5h-5.5l-1.9-4.3h-8.7l-1.9,4.3h-5.4Zm1.9,5.9L325.6,51H331Z"/><path class="cls-1" d="M378.9,59.2h19.8V33h-33V46A13.25,13.25,0,0,0,378.9,59.2Z"/><path class="cls-1" d="M424.9,79V59.2H398.7v33h13A13.25,13.25,0,0,0,424.9,79Z"/><path class="cls-1" d="M444.7,33H424.9V59.2h33v-13A13.19,13.19,0,0,0,444.7,33Z"/><path class="cls-1" d="M398.7,13.2V33h26.2V0h-13A13.19,13.19,0,0,0,398.7,13.2Z"/></g></g></svg>